<svg width="30" height="30" viewBox="0 0 30 30" fill="none" xmlns="http://www.w3.org/2000/svg">
<path fill-rule="evenodd" clip-rule="evenodd" d="M11 7V8V20V21L19 23V22V10V9L12 7.25L11 7ZM4 8.56154C4 7.6438 4.62459 6.84384 5.51493 6.62125L10.2724 5.18189C10.7501 5.06246 11.2499 5.06246 11.7276 5.18189L18.2724 6.81808C18.7501 6.93751 19.2499 6.93751 19.7276 6.81808L24.0597 5.48506C25.0453 5.23867 26 5.98409 26 6.99999V21.4384C26 22.3562 25.3754 23.1561 24.4851 23.3787L19.7276 24.8181C19.2499 24.9375 18.7501 24.9375 18.2724 24.8181L11.7276 23.1819C11.2499 23.0625 10.7501 23.0625 10.2724 23.1819L5.94028 24.5149C4.95471 24.7613 4 24.0159 4 23V8.56154Z" fill="#BEB9C5"/>
</svg>
